<svg id="Layer_1" xmlns="http://www.w3.org/2000/svg" viewBox="0 0 339.6 156.8"><style>.st0{fill-rule:evenodd;clip-rule:evenodd;fill:#FFFFFF;} .st1{fill:#FFFFFF;}</style><path class="st0" d="M243.7 50l-5.8 3.4 1.1 4.8 6 .5 8.7-2.7c-1.7-4.7-2.2-9.9-1.3-15.6l15.9 5.2c.2 2.6.4 3.9 1.1 5.5l10-3.2c-.4-.6-.7-1.4-.7-2.4 0-5.5 8.3-5.5 8.4-.1l35.4-11.2 3.8-3.1-1.8-4.6-6.8.4-1.4-2.3L320 19l-3.1-3.8-6.3 2.4-2-1.9 1.9-6.5-4.1-2.8-5.3 4.1-2.5-1.2-.1-6.7-4.7-1.5-3.8 5.8-2.7-.4-2-6.5h-4.9l-2.1 6.5-2.6.4-3.9-5.5-4.8 1.4-.1 6.8-2.4 1.2-5.3-4.1-4.1 2.8L257 16l-2 1.8-6.3-2.4-3.1 3.9 3.7 5.6-1.3 2.4-6.7-.4-1.8 4.6 5.2 4.3-.6 2.6-6.6 1.6-.4 4.9 6.3 2.5.3 2.6zm43.7-35l3.2.6c7.7 2 14.3 6.9 18.4 13.5l1.5 2.7-15.9 5.2c-2.5-3-3.5-3.8-7.2-5.2V15zm-30.7 14.1c4.2-6.6 10.7-11.5 18.5-13.5l3.1-.6v16.7c-3.6 1.4-4.7 2.2-7.2 5.2l-15.9-5.1 1.5-2.7zM322.1 106.9l5.8-3.5-1.1-4.8-6.7-.6-.4-.9-8.2 2.6c2.1 5 2.6 10.5 1.7 16.6l-15.9-5.1c-.3-3.1-.5-4.5-1.6-6.5l-10.4 3.3c.9.7 1.6 1.8 1.6 3.3 0 5.5-8.4 5.5-8.4 0 0-.4.1-.8.2-1.2l-34.1 10.8.1.4-5.2 4.3 1.8 4.6 6.7-.4 1.3 2.3-3.7 5.6 3.1 3.9 6.3-2.4 2 1.8-1.9 6.5 4.1 2.8 5.3-4.1 2.4 1.2.1 6.8 4.7 1.5 3.9-5.6 2.6.4 2.1 6.5h4.9l2.1-6.5 2.7-.4 3.9 5.5 4.7-1.5.1-6.7 2.5-1.2 5.3 4.1 4.1-2.7-1.9-6.5 2-1.9 6.3 2.4 3.1-3.8-3.7-5.6 1.4-2.3 6.8.4 1.8-4.6-5.2-4.3.6-2.6 6.6-1.6.4-4.9-6.2-2.5-.5-2.9zm-43.8 34.9l-3.1-.6c-7.7-2-14.3-6.9-18.5-13.5l-1.5-2.7 15.9-5.2c2.4 3 3.5 3.8 7.2 5.2v16.8zm30.7-14.1c-4.1 6.6-10.7 11.5-18.4 13.5l-3.2.6v-16.7c3.7-1.4 4.7-2.2 7.2-5.2l15.9 5.1-1.5 2.7zM315.1 82.2c-.1.2-.1.3-.1.5v.7c0 .3.1.5.3.4.1 0 .2-.1.2-.2s.1-.2.1-.3v-1.6l-.5.5zM295.4 88.5c-.1.2-.1.3-.1.5v.7c0 .3.1.5.3.4.1 0 .2-.1.2-.2s.1-.2.1-.3V88c-.3.2-.4.4-.5.5zM291.7 87.7c-.1 0-.2.1-.3.2 0 .1-.1.3-.1.5v2.4c0 .5.1.7.3.6.1 0 .2-.1.3-.3 0-.1.1-.3.1-.6V88.2c0-.2 0-.3-.1-.4 0-.1 0-.2-.2-.1zM249.5 101.2c-.2.1-.3.3-.3.6v2.8c0 .1 0 .2.1.3s.1.1.2 0c.1 0 .2-.1.2-.2.1-.1.1-.2.1-.3v-2.8c0-.4-.1-.5-.3-.4zM268.6 95c-.2.1-.3.3-.3.7v.7l.6-.2v-.7c0-.3-.1-.5-.3-.5zM257.2 98.7c-.2.1-.3.3-.3.7v.7l.6-.2v-.7c0-.4-.1-.6-.3-.5zM264.7 96.3c-.2.1-.3.3-.3.7v2.5c0 .2 0 .3.1.4 0 .1.1.1.3.1.1 0 .2-.1.2-.2s.1-.3.1-.5v-2.4c0-.2 0-.3-.1-.4-.1-.2-.1-.2-.3-.2zM305.3 83.3c-.2.1-.3.3-.3.7v.7l.6-.2v-.7c0-.4-.1-.5-.3-.5zM276 94.7c-.1.2-.1.3-.1.5v.8c0 .3.1.5.3.4.1 0 .2-.1.2-.2s.1-.2.1-.3v-1.6c-.3.1-.4.3-.5.4z"/><path class="st0" d="M339.6 87l-8.4-26.4 8-27.7-113 35.6 8.4 22.8-8.1 31.3L339.6 87zm-92.9 19.8l-1.8.6-.8-6.4 1.3-.4.5 4.4.4-4.7 1.3-.4-.9 6.9zm4.5-3.2c0 1.2-.6 2-1.7 2.3-1.1.4-1.7 0-1.7-1.2v-2.3c0-.5.2-1 .5-1.4.3-.4.7-.7 1.3-.9.5-.2.9-.1 1.3.1.3.2.5.6.5 1.1v2.3zm3.9-2.9l-1.4.4v-.8c0-.2 0-.3-.1-.3 0-.1-.1-.1-.2 0-.2.1-.3.3-.3.6v2.8c0 .1 0 .2.1.3.1.1.1.1.2.1s.2-.1.2-.2c.1-.1.1-.2.1-.4v-1l1.4-.4v1c0 .5-.2.9-.5 1.2-.3.4-.7.6-1.2.8-.6.2-1.1.2-1.3 0-.3-.2-.4-.7-.4-1.3v-1.8c0-.5.1-.9.2-1.3.1-.3.3-.6.5-.9.3-.2.6-.4 1-.6.5-.2.9-.2 1.2 0 .3.2.5.5.5.9v.9zm3.8-1.5v1l-2 .6v1.1c0 .2 0 .3.1.4 0 .1.1.1.3.1.1 0 .2-.1.2-.2s.1-.2.1-.2v-1l1.4-.4v.3c0 .7-.1 1.2-.4 1.6-.3.4-.7.7-1.3.9-.6.2-1 .2-1.3-.1-.3-.2-.4-.7-.4-1.3v-2.3c0-.5.2-1 .5-1.3.3-.4.7-.6 1.3-.8 1.1-.4 1.6 0 1.6 1.1v.5zm1.8 3.1l-.4 1.1-.8.3.3-1-.5.2v-1.1l1.4-.5v1zm5.7-3.8c0 .4 0 .8-.1 1.1-.1.3-.2.6-.3.8-.2.2-.4.4-.8.5-.3.1-.6.1-.8 0v1.4l-1.4.4v-6.8l1.4-.4v.3c.2-.3.5-.5.8-.6.4-.1.7-.1.9.1.2.2.3.6.3 1.1v2.1zm3.8-3v1l-2 .6v1.1c0 .2 0 .3.1.4 0 .1.1.1.3.1.1 0 .2-.1.2-.2s.1-.2.1-.2v-1l1.4-.4v.3c0 .7-.1 1.2-.4 1.6-.3.4-.7.7-1.3.9-.6.2-1 .2-1.3-.1-.3-.2-.4-.7-.4-1.3V96c0-.5.2-1 .5-1.3.3-.4.7-.6 1.3-.8 1.1-.4 1.6 0 1.6 1.1v.5zm3.9-.9l-1.4.4v-.8c0-.2 0-.3-.1-.3 0-.1-.1-.1-.2 0-.2.1-.3.3-.3.6v2.8c0 .1 0 .2.1.3.1.1.1.1.2.1s.2-.1.2-.2c.1-.1.1-.2.1-.4v-1l1.4-.4v1c0 .4-.1.8-.4 1.1-.2.3-.6.6-1 .8.2.1.4.3.5.5.1.2.2.4.2.7 0 .3-.1.5-.3.8-.2.2-.5.4-.9.5-.3.1-.5.1-.8.1v-.8c.2 0 .3 0 .5-.1.3-.1.4-.3.4-.6s-.1-.6-.4-.9c-.5.1-.9 0-1.1-.2-.2-.2-.3-.7-.3-1.2v-1.8c0-.5.1-.9.2-1.3.1-.3.3-.6.5-.9.3-.2.6-.4 1-.6.5-.2.9-.2 1.2 0 .3.2.5.5.5.9v.9zm7.8-4.9h-.1c-.1 0-.1.1-.1.1V90.1l.3-.1v1.1l-.3.1v4.4l-1.4.4v-4.4l-.2.1v-1l.2-.1v-.4c0-.6.3-1 .9-1.2.3-.1.5-.1.7-.1v.8zm3.8 4.6l-1.4.4v-.6c-.1.3-.2.5-.3.6-.1.1-.3.3-.6.3-.4.1-.7.1-.9-.1-.2-.2-.2-.6-.2-1.1v-4.2l1.4-.4v4.3c0 .2 0 .3.1.3 0 0 .1.1.2 0 .1 0 .2-.1.3-.3 0-.1.1-.3.1-.5v-4l1.4-.4v5.7zm3.8-1.2l-1.3.4v-4.3c0-.1 0-.2-.1-.3 0-.1-.1-.1-.2-.1s-.2.1-.3.3c0 .1-.1.3-.1.5v4l-1.4.4v-5.7l1.4-.4v.7c.1-.3.2-.5.3-.7.1-.2.3-.3.6-.4.4-.1.7-.1.9.1.2.2.3.5.3.9v4.6zm13.6-4.3l-1.4.4V85c0-.4-.1-.5-.3-.5-.1 0-.2.1-.3.3-.1.1-.1.3-.1.5v4.1l-1.4.4v-4.2c0-.2 0-.3-.1-.4 0-.1-.1-.1-.2-.1s-.2.1-.3.3c-.1.2-.1.3-.1.5v4l-1.3.4v-5.7l1.3-.4v.8c.1-.3.2-.5.3-.6.2-.2.4-.3.6-.4.2-.1.4-.1.6 0 .2 0 .3.2.3.3.1-.2.2-.4.4-.6.1-.1.3-.2.6-.3.4-.1.8-.1.9.1.2.2.3.6.3 1.1l.2 4.2zm3.8-5v1l-2 .6v1.1c0 .2 0 .3.1.4 0 .1.1.1.3.1.1 0 .2-.1.2-.2s.1-.2.1-.2v-1l1.4-.4v.3c0 .7-.1 1.2-.4 1.6-.3.4-.7.7-1.3.9-.6.2-1 .2-1.3-.1-.3-.2-.4-.7-.4-1.3v-2.3c0-.5.2-1 .5-1.3.3-.4.7-.6 1.3-.8 1.1-.4 1.6 0 1.6 1.1v.5zm6.4-2.7l-.4.1V84.6s.1.1.1 0c.1 0 .1 0 .1-.1h.1v.9c-.1 0-.2.1-.3.2-.1.1-.3.1-.4.2-.4.1-.6.1-.7 0-.1-.1-.2-.3-.2-.7v-3.6l-.4.1v-1l.4-.1v-1.2l1.3-.4v1.2l.4-.1v1.1zm3.6 3.3l-1.4.4v-.7c-.1.3-.2.5-.3.6-.1.2-.3.3-.5.4-.4.1-.7.1-.9-.2-.2-.2-.2-.6-.2-1.2 0-.4.1-.8.2-1.1.1-.3.3-.5.5-.7.2-.2.5-.4 1-.7l.4-.2v-.6c0-.2 0-.3-.1-.3-.1-.1-.1-.1-.2-.1s-.1.1-.2.2-.1.2-.1.3v.5l-1.3.4v-.2c0-.6.1-1 .4-1.3.3-.3.7-.6 1.3-.8.5-.2.9-.2 1.2 0 .3.2.4.5.4.9v4.4zm1.9-.7l-1.4.4v-6.7l1.4-.4v6.7zm-10.3-25.6c0-1.1.2-2.2.6-3.3.4-1.1.9-2.1 1.6-3 .7-.9 1.6-1.7 2.6-2.4s2.1-1.3 3.3-1.6c1.2-.4 2.3-.5 3.3-.5 1 .1 1.8.3 2.5.8s1.3 1.1 1.6 1.9c.4.8.6 1.8.6 2.9v10.2c0 1.1-.2 2.2-.6 3.3-.4 1.1-.9 2.1-1.6 3-.7.9-1.5 1.7-2.5 2.4s-2.1 1.2-3.3 1.6c-1.2.4-2.3.5-3.3.5-1-.1-1.8-.3-2.6-.8-.7-.4-1.3-1-1.7-1.8-.4-.8-.6-1.7-.6-2.7V58.1zm-1.1 23.6l1.4-.4v.7c.1-.3.2-.5.3-.7.1-.2.3-.3.6-.4.4-.1.7-.1.9.1.2.2.3.5.3.9v4.4l-1.3.4v-4.3c0-.1 0-.2-.1-.3 0-.1-.1-.1-.2-.1s-.2.1-.3.3c0 .1-.1.3-.1.5v4l-1.4.4v-5.5zm-6.3-29l6.2-2v25.7l-6.4 2.1V62.3c-.1.1-5-2.4-5-2.4l5.2-7.2zm-5.4 33.8c-.1-.1-.1-.1-.2-.1s-.1.1-.2.2-.1.2-.1.3v.3l-1.3.4v-.2c0-.6.1-1 .4-1.3.3-.3.7-.6 1.3-.8.5-.2.9-.2 1.2 0 .3.2.4.5.4.9v4.3l-1.4.4v-.7c-.1.3-.2.5-.3.6-.1.2-.3.3-.5.4-.4.1-.7.1-.9-.2-.2-.2-.2-.6-.2-1.2 0-.4.1-.8.2-1.1.1-.3.3-.5.5-.7.2-.2.5-.4 1-.7l.4-.2v-.6c-.2.2-.2.1-.3 0zm-2.3 5.4l-1.4.4v-.6l-.3.6s-.3.3-.5.3c-.3.1-.6.1-.8 0-.2-.1-.3-.3-.3-.5-.1-.2-.1-.6-.1-1v-2.6c0-.4.1-.8.3-1.1.2-.3.5-.5.9-.7.4-.1.6-.1.8.1v-1.3l1.4-.4v6.8zm-15.5-31.8l8-2.5c1.1-.4 2.2-.5 3.1-.4.9.1 1.7.4 2.3 1 .6.5 1.2 1.3 1.5 2.2.4.9.5 2 .5 3.3 0 1.3-.2 2.5-.5 3.6-.4 1.2-.9 2.2-1.5 3.2s-1.4 1.8-2.4 2.5c-.9.7-2 1.2-3.1 1.6l-1.4.5v8.8l-6.5 2.1V60.1zm-.6 31.5c.3.2.4.5.4.9v4.3l-1.4.4v-.7c-.1.3-.2.5-.3.6-.1.2-.3.3-.5.4-.4.1-.7.1-.9-.2-.2-.2-.2-.6-.2-1.2 0-.4.1-.8.2-1.1.1-.3.3-.5.5-.7.2-.2.5-.4 1-.7l.4-.2V93c0-.2 0-.3-.1-.3-.1-.1-.1-.1-.2-.1s-.1.1-.2.2-.1.2-.1.3v.3l-1.3.4v-.2c0-.6.1-1 .4-1.3.3-.3.7-.6 1.3-.8.4-.1.7 0 1 .1zm-20.2-15.3c0-1.1.2-2.4.7-3.6.4-1.3 1.1-2.5 1.9-3.6 1-1.3 2.1-2.4 3.3-3.4 1.2-.9 2.5-1.6 3.9-2.1 1.4-.4 2.7-.6 3.9-.4 1.2.1 2.3.6 3.3 1.3.8.6 1.5 1.4 1.9 2.4.4 1 .6 2.1.7 3.3V76c0 1.3-.2 2.6-.6 4-.4 1.4-1 2.8-1.9 4-1 1.3-2.1 2.4-3.3 3.4-1.2.9-2.5 1.6-3.9 2.1-1.3.4-2.6.6-3.9.4-1.2-.1-2.3-.6-3.3-1.3-.9-.7-1.6-1.6-1.9-2.7-.4-1.1-.6-2.3-.6-3.7v-5.9zm.9 19.2l.9 1.2-1.4.4-.3-1-.3 1.2-1.4.4.9-1.8 1.6-.4zm-19.6-22.8l17.8-5.7v6.4l-5.7 1.8v19.3l-6.4 2.1V77.3l-5.7 1.8v-6.4z"/><g><path class="st1" d="M5.9 125.1h10v-2.5h-12c-2.5 0-3.8.9-3.8 4v7c0 3.1 1.4 4 3.8 4h12.4V135H5.9c-.7 0-.9-.2-.9-.9v-8.2c.1-.7.2-.8.9-.8M31.1 122.5v5.9h-8v-5.9H18v15.1h5.1v-6.7h8v6.7h5.1v-15.1zM71.5 122.5l-4.9 12.3c-.1.2-.2.2-.5.2s-.4 0-.5-.2l-4.9-12.3H42.5c-2.5 0-3.8.9-3.8 4v7.1c0 3.1 1.4 4 3.8 4h12.8V135H44.6c-.7 0-.9-.2-.9-.9v-3.3h10.6v-2.5H43.7v-2.5c0-.7.2-.9.9-.9H56c1.6 3.8 4.4 10.3 4.6 10.8.3.8 1 1.7 2.3 1.7h4.7c1.3 0 1.8-.9 2.1-1.7.3-.8 5.7-13.4 5.7-13.4h-3.9zM101.9 125h6.4c.7 0 .9.2.9.9v8.3c0 .7-.2.9-.9.9h-6.5c-.7 0-.9-.2-.9-.9v-8.3c.1-.7.3-.9 1-.9m12.3 1.5c0-3.1-1.4-4-3.8-4H99.8c-2.5 0-3.8.9-3.8 4v7.1c0 3.1 1.4 4 3.8 4h10.6c2.5 0 3.8-.9 3.8-4V130c.1-1.7 0-3.5 0-3.5M121.8 135v-12.5h-5v15.1h15.6V135z"/><g><path class="st1" d="M136.7 122.5c-2.5 0-3.8.9-3.8 4v7c0 3.1 1.4 4 3.8 4h12.8V135h-10.7c-.7 0-.9-.2-.9-.9v-3.3h10.6v-2.5h-10.6v-2.5c0-.7.2-.9.9-.9h16.7v12.5h5V125h5.8v-2.5h-29.6zM88.2 131.1c-.2-.1-.1-.2.1-.2h2.3c1.7 0 3.3-.5 3.4-2.8.1-.6 0-2.1 0-2.1 0-2.5-1.3-3.4-3.2-3.4H76v15h5v-12.5h7.4c.5 0 .6.1.6.4v2.9c0 .2-.3.4-.6.4h-6v2.3l7.4 6.5h6.9c-.1 0-8.4-6.4-8.5-6.5M148.4 71.9l-8.6 16.9h-36.3v11.8H62.9V88.8H18l8.6-16.9h36.3V60h40.6v11.8h44.9zm17.3-6.9h-55.3V54.3c0-.6-.5-1.1-1.1-1.1H57.1c-.6 0-1.1.5-1.1 1.1V65H16.3c-.6 0-1.3.5-1.6 1.1L.1 94.6c-.3.6-.1 1.1.5 1.1H56v10.7c0 .6.5 1.1 1.1 1.1h52.1c.6 0 1.1-.5 1.1-1.1V95.7H150c.6 0 1.3-.5 1.6-1.1l14.6-28.5c.3-.6.1-1.1-.5-1.1"/></g></g></svg>